<svg width="432" height="360" viewBox="0 0 432 360" fill="none" xmlns="http://www.w3.org/2000/svg">
<ellipse cx="202" cy="316" rx="191" ry="9" fill="#0F4AA1"/>
<path d="M349.299 202.713L327.312 182.127L357.001 150.477L378.988 171.064L349.299 202.713Z" fill="#0F479E"/>
<path d="M357.001 150.407C362.673 144.385 372.265 144.035 378.357 149.777C384.379 155.449 384.73 164.972 378.988 171.064C373.316 177.155 363.793 177.435 357.701 171.764C351.609 166.092 351.329 156.499 357.001 150.407Z" fill="#0F479E"/>
<path d="M327.312 182.127C332.984 176.035 342.507 175.685 348.598 181.427C354.69 187.098 354.97 196.691 349.299 202.713C343.557 208.805 334.034 209.085 327.942 203.413C321.92 197.742 321.57 188.149 327.312 182.127Z" fill="#0F479E"/>
<path d="M343.837 178.346L332.774 206.425L292.371 190.39L303.505 162.381L343.837 178.346Z" fill="#0F479E"/>
<path d="M332.704 206.425C325.001 203.344 321.22 194.591 324.231 186.819C327.312 179.116 336.065 175.265 343.837 178.346C351.61 181.427 355.391 190.18 352.31 197.952C349.229 205.655 340.476 209.506 332.704 206.425Z" fill="#0F479E"/>
<path d="M292.371 190.39C284.599 187.379 280.818 178.556 283.899 170.854C286.98 163.082 295.732 159.301 303.505 162.381C311.207 165.462 314.988 174.215 311.977 181.917C308.896 189.69 300.144 193.471 292.371 190.39Z" fill="#0F479E"/>
<path d="M304.135 153.49H286.769V136.265C286.769 114.698 269.194 97.1226 247.628 97.1226C225.991 97.1226 208.486 114.698 208.486 136.265V151.879H191.05V136.265C191.05 105.105 216.398 79.7573 247.628 79.7573C278.787 79.7573 304.135 105.105 304.135 136.265V153.49Z" fill="#FFCC3B"/>
<path style="mix-blend-mode:multiply" d="M247.628 79.7573C216.398 79.7573 191.05 105.105 191.05 136.265V141.166C191.05 110.007 216.398 84.5888 247.628 84.5888C278.787 84.5888 304.135 110.007 304.135 141.166V136.265C304.135 105.105 278.787 79.7573 247.628 79.7573Z" fill="url(#paint0_linear_670_2053)"/>
<path d="M239.295 292.342H211.216C207.155 292.342 203.934 289.051 203.934 285.06V243.117C203.934 239.056 207.155 235.835 211.216 235.835H239.295C243.286 235.835 246.507 239.056 246.507 243.117V285.06C246.507 289.051 243.286 292.342 239.295 292.342Z" fill="#0F479E"/>
<path d="M286.069 292.342H258.551C254.63 292.342 251.339 289.121 251.339 285.13V243.047C251.339 239.056 254.63 235.835 258.551 235.835H286.069C289.99 235.835 293.281 239.056 293.281 243.047V285.13C293.281 289.121 289.99 292.342 286.069 292.342Z" fill="#0F479E"/>
<path d="M317.439 315.379C317.439 304.666 308.756 295.983 298.043 295.983H293.281V286.32H251.549V315.379H317.439Z" fill="#108CE7"/>
<path d="M179.567 315.589C179.567 304.735 188.389 295.912 199.313 295.912H204.074V286.109H246.507V315.589H179.567Z" fill="#108CE7"/>
<path d="M251.059 265.944H243.636C203.304 265.944 170.534 233.174 170.534 192.842V163.713C170.534 152.23 179.777 142.987 191.19 142.987H303.505C314.918 142.987 324.161 152.23 324.161 163.713V192.842C324.161 233.174 291.461 265.944 251.059 265.944Z" fill="#1AC1FF"/>
<path d="M246.577 278.337H203.934V272.386H246.577V278.337Z" fill="white"/>
<path d="M293.421 278.337H251.339V272.386H293.421V278.337Z" fill="white"/>
<path opacity="0.6" d="M250.499 256.701H244.197C209.886 256.701 182.088 228.903 182.088 194.592V169.805C182.088 160.072 189.93 152.229 199.663 152.229H295.032C304.765 152.229 312.607 160.072 312.607 169.805V194.592C312.607 228.903 284.809 256.701 250.499 256.701Z" fill="url(#paint1_linear_670_2053)"/>
<path opacity="0.6" d="M294.962 152.229H291.741C298.393 154.89 303.154 161.332 303.154 168.964V194.312C303.154 225.051 281.308 250.749 252.319 256.701C285.719 255.651 312.537 228.272 312.537 194.592V169.805C312.537 160.072 304.695 152.229 294.962 152.229Z" fill="url(#paint2_linear_670_2053)"/>
<path d="M236.634 163.221V168.963C236.634 175.125 241.606 180.096 247.768 180.096C253.929 180.096 258.901 175.125 258.901 168.963V163.221" stroke="#0F479E" stroke-width="3" stroke-linecap="round" stroke-linejoin="round"/>
<path d="M202.464 295.911H199.313C188.39 295.911 179.567 304.734 179.567 315.587H182.788C182.788 304.734 191.611 295.911 202.464 295.911Z" fill="#1AC1FF"/>
<path opacity="0.3" d="M294.822 295.911H297.973C308.686 295.911 317.439 304.594 317.439 315.377H314.288C314.288 304.594 305.535 295.911 294.822 295.911Z" fill="white"/>
<path d="M244.617 138.154C244.617 148.517 236.214 156.92 225.851 156.92C215.488 156.92 207.085 148.517 207.085 138.154C207.085 127.791 215.488 119.388 225.851 119.388C236.214 119.388 244.617 127.791 244.617 138.154Z" fill="white"/>
<path d="M236.704 138.153C236.704 144.105 231.873 149.007 225.851 149.007C219.829 149.007 214.998 144.105 214.998 138.153C214.998 132.132 219.829 127.23 225.851 127.23C231.873 127.23 236.704 132.132 236.704 138.153Z" fill="#0F479E"/>
<path style="mix-blend-mode:multiply" d="M236.704 138.153C236.704 144.105 231.873 149.007 225.851 149.007C219.829 149.007 214.998 144.105 214.998 138.153C214.998 132.132 219.829 127.23 225.851 127.23C231.873 127.23 236.704 132.132 236.704 138.153Z" fill="url(#paint3_linear_670_2053)"/>
<path d="M289.43 138.854C289.43 149.217 281.028 157.619 270.665 157.619C260.302 157.619 251.899 149.217 251.899 138.854C251.899 128.49 260.302 120.088 270.665 120.088C281.028 120.088 289.43 128.49 289.43 138.854Z" fill="white"/>
<path d="M281.518 138.854C281.518 144.876 276.687 149.778 270.665 149.778C264.643 149.778 259.811 144.876 259.811 138.854C259.811 132.902 264.643 128.001 270.665 128.001C276.687 128.001 281.518 132.902 281.518 138.854Z" fill="#0F479E"/>
<path d="M281.518 138.854C281.518 144.876 276.687 149.778 270.665 149.778C264.643 149.778 259.811 144.876 259.811 138.854C259.811 132.902 264.643 128.001 270.665 128.001C276.687 128.001 281.518 132.902 281.518 138.854Z" fill="url(#paint4_linear_670_2053)"/>
<path d="M302.875 240.245H192.661C183.558 240.245 176.136 232.823 176.136 223.72C176.136 222.529 177.046 221.549 178.236 221.549H317.299C318.489 221.549 319.47 222.529 319.47 223.72C319.47 232.823 312.047 240.245 302.875 240.245Z" fill="white"/>
<path d="M302.875 240.245H192.661C183.558 240.245 176.136 232.823 176.136 223.72C176.136 222.529 177.046 221.549 178.236 221.549H317.299C318.489 221.549 319.47 222.529 319.47 223.72C319.47 232.823 312.047 240.245 302.875 240.245Z" fill="url(#paint5_linear_670_2053)"/>
<path d="M275.216 207.054C267.514 203.623 258.761 201.732 250.078 201.732H248.958C240.275 201.732 231.523 203.623 223.82 207.054C223.61 207.124 223.54 207.264 223.54 207.474V215.946C223.54 231.491 233.413 245.495 249.308 252.498C249.448 252.568 249.588 252.568 249.728 252.498C265.693 245.495 275.566 231.491 275.566 215.946V207.474C275.566 207.334 275.426 207.124 275.216 207.054Z" fill="#FFCC3B"/>
<path style="mix-blend-mode:multiply" d="M275.216 207.054C267.514 203.623 258.761 201.732 250.078 201.732H248.958C240.275 201.732 231.523 203.623 223.82 207.054C223.61 207.124 223.54 207.264 223.54 207.474V215.946C223.54 231.491 233.413 245.495 249.308 252.498C249.448 252.568 249.588 252.568 249.728 252.498C265.693 245.495 275.566 231.491 275.566 215.946V207.474C275.566 207.334 275.426 207.124 275.216 207.054Z" fill="url(#paint6_linear_670_2053)"/>
<path d="M269.894 211.255C263.732 208.524 256.87 207.053 249.938 207.053H249.098C242.166 207.053 235.304 208.524 229.142 211.255C229.002 211.325 228.932 211.395 228.932 211.535V218.327C228.932 230.581 236.704 241.644 249.308 247.246C249.448 247.292 249.588 247.292 249.728 247.246C262.332 241.644 270.105 230.581 270.105 218.327V211.535C270.105 211.395 270.034 211.325 269.894 211.255Z" fill="#108CE7"/>
<path opacity="0.6" d="M269.894 211.255C263.732 208.524 256.87 207.053 249.938 207.053H249.098C243.286 207.053 237.475 208.034 232.153 209.994C236.984 208.524 242.096 207.684 247.278 207.684H248.118C255.12 207.684 262.052 209.154 268.284 211.955C268.424 212.025 268.494 212.095 268.494 212.235V219.097C268.494 229.81 262.542 239.683 252.669 245.775C263.522 239.823 270.105 229.6 270.105 218.327V211.535C270.105 211.395 270.034 211.325 269.894 211.255Z" fill="url(#paint7_linear_670_2053)"/>
<path d="M253.089 226.8V233.802C253.089 235.832 251.479 237.443 249.448 237.443C247.488 237.443 245.877 235.832 245.877 233.802V226.8C243.707 225.539 242.236 223.229 242.236 220.568C242.236 216.647 245.457 213.356 249.448 213.356C253.44 213.356 256.66 216.647 256.66 220.568C256.66 223.229 255.19 225.539 253.089 226.8Z" fill="#0F479E"/>
<path d="M133.213 114.346C142.736 91.9396 132.232 66.1017 109.826 56.5788C87.3486 47.1259 61.5108 57.6291 52.0579 80.0359C42.605 102.443 53.1082 128.281 75.515 137.804C97.9219 147.256 123.76 136.753 133.213 114.346Z" fill="url(#paint8_linear_670_2053)"/>
<path d="M54.5086 315.798H82.0973V44.325H54.5086C50.4473 44.325 47.1563 47.616 47.1563 51.7473V308.446C47.1563 312.507 50.4473 315.798 54.5086 315.798Z" fill="#1486E2"/>
<path d="M54.5086 315.798H82.0973V44.325H54.5086C50.4473 44.325 47.1563 47.616 47.1563 51.7473V308.446C47.1563 312.507 50.4473 315.798 54.5086 315.798Z" fill="url(#paint9_linear_670_2053)"/>
<path d="M54.5086 315.798H82.0973V44.325H54.5086C50.4473 44.325 47.1563 47.616 47.1563 51.7473V308.446C47.1563 312.507 50.4473 315.798 54.5086 315.798Z" fill="url(#paint10_linear_670_2053)"/>
<path d="M55.8393 113.227C57.0997 113.227 58.1498 112.176 58.1498 110.916V94.0407C58.1498 92.7804 57.0997 91.8 55.8393 91.8C54.5789 91.8 53.5984 92.7804 53.5984 94.0407V110.916C53.5984 112.176 54.5789 113.227 55.8393 113.227Z" stroke="#1CBDFB" stroke-width="1.3" stroke-linecap="round" stroke-linejoin="round"/>
<path d="M55.8393 143.756C57.0997 143.756 58.1498 142.705 58.1498 141.445V124.57C58.1498 123.309 57.0997 122.329 55.8393 122.329C54.5789 122.329 53.5984 123.309 53.5984 124.57V141.445C53.5984 142.705 54.5789 143.756 55.8393 143.756Z" stroke="#1CBDFB" stroke-width="1.3" stroke-linecap="round" stroke-linejoin="round"/>
<path d="M71.7339 315.798H188.039C192.031 315.798 195.252 312.647 195.252 308.656L195.182 51.4672C195.182 47.546 192.031 44.325 188.039 44.325H71.7339C67.7427 44.325 64.5919 47.546 64.5919 51.4672V308.656C64.5919 312.647 67.7427 315.798 71.7339 315.798Z" fill="#1CBDFB"/>
<path style="mix-blend-mode:screen" opacity="0.5" d="M71.7339 315.798H188.039C192.031 315.798 195.252 312.647 195.252 308.656L195.182 51.4672C195.182 47.546 192.031 44.325 188.039 44.325H71.7339C67.7427 44.325 64.5919 47.546 64.5919 51.4672V308.656C64.5919 312.647 67.7427 315.798 71.7339 315.798Z" fill="url(#paint11_linear_670_2053)"/>
<path d="M138.534 302.423C138.534 307.185 134.683 311.036 129.922 311.036C125.09 311.036 121.239 307.185 121.239 302.423C121.239 297.662 125.09 293.741 129.922 293.741C134.683 293.741 138.534 297.662 138.534 302.423Z" stroke="white" stroke-width="1.3" stroke-linecap="round" stroke-linejoin="round"/>
<path d="M146.867 60.01H120.889C119.839 60.01 118.928 59.1697 118.928 58.1194C118.928 57.0691 119.839 56.2288 120.889 56.2288H146.867C147.847 56.2288 148.757 57.0691 148.757 58.1194C148.757 59.1697 147.847 60.01 146.867 60.01Z" fill="#006CCA"/>
<path d="M111.086 58.1194C111.086 59.1697 111.926 60.01 112.976 60.01C114.027 60.01 114.867 59.1697 114.867 58.1194C114.867 57.0691 114.027 56.2288 112.976 56.2288C111.926 56.2288 111.086 57.0691 111.086 58.1194Z" fill="#006CCA"/>
<path d="M69.9834 287.299H189.79C190.35 287.299 190.84 286.809 190.84 286.249V71.7031C190.84 71.1429 190.35 70.6528 189.79 70.6528H69.9834C69.4232 70.6528 69.0032 71.1429 69.0032 71.7031V286.249C69.0032 286.809 69.4232 287.299 69.9834 287.299Z" fill="#108CE7"/>
<path d="M64.9419 214.197C64.055 214.43 63.1214 214.523 62.1411 214.477L45.1958 213.566C39.9441 213.286 35.9531 208.805 36.2332 203.553C36.5132 198.302 40.9244 194.31 46.176 194.591L63.1213 195.501C68.3729 195.781 72.4341 200.192 72.154 205.444C71.8739 209.715 68.8631 213.216 64.9419 214.197Z" fill="#108CE7"/>
<path d="M68.093 196.902C69.1433 198.582 69.7733 200.683 69.6333 202.923C69.4232 207.195 66.8325 210.626 63.4715 211.606C62.6779 211.793 61.8844 211.863 61.0909 211.816L41.6948 210.626C40.3644 210.556 39.1039 210.136 38.0536 209.365C39.454 211.606 41.6249 213.077 44.2156 213.287L63.5416 214.477C64.3819 214.524 65.1754 214.43 65.9223 214.197C69.3533 213.217 71.944 209.786 72.1541 205.514C72.2941 201.873 70.6838 198.652 68.093 196.902Z" fill="url(#paint12_linear_670_2053)"/>
<path d="M59.76 179.606C58.8264 179.84 57.8697 179.933 56.8894 179.886L44.0052 179.046C38.7536 178.696 34.7626 174.214 35.1127 168.963C35.4628 163.711 39.9441 159.72 45.1957 160.07L58.0796 160.91C63.3312 161.19 67.3226 165.742 66.9724 170.993C66.6924 175.195 63.6812 178.626 59.76 179.606Z" fill="#108CE7"/>
<path d="M45.196 163.501L58.0798 164.341C62.5612 164.622 66.0623 167.913 66.8325 172.044C66.8792 171.717 66.926 171.367 66.9727 170.993C67.3228 165.742 63.3314 161.19 58.0798 160.91L45.196 160.07C39.9444 159.72 35.4631 163.711 35.113 168.963C35.0663 169.756 35.1128 170.527 35.2528 171.274C36.0931 166.582 40.3645 163.151 45.196 163.501Z" fill="url(#paint13_linear_670_2053)"/>
<path d="M65.7119 198.932C64.8249 199.166 63.8913 199.259 62.911 199.213L40.3643 198.022C35.1127 197.742 31.1213 193.261 31.4014 188.009C31.6815 182.757 36.1631 178.766 41.4147 179.046L63.9613 180.237C69.2129 180.517 73.2044 184.998 72.9243 190.25C72.7142 194.521 69.7031 197.952 65.7119 198.932Z" fill="#108CE7"/>
<path d="M65.7119 198.932C64.8249 199.166 63.8913 199.259 62.911 199.213L40.3643 198.022C35.1127 197.742 31.1213 193.261 31.4014 188.009C31.6815 182.757 36.1631 178.766 41.4147 179.046L63.9613 180.237C69.2129 180.517 73.2044 184.998 72.9243 190.25C72.7142 194.521 69.7031 197.952 65.7119 198.932Z" fill="#108CE7"/>
<path d="M68.2329 181.497C69.4932 183.247 70.1935 185.348 70.0535 187.589C69.8434 191.86 66.7626 195.361 62.8414 196.341C61.9545 196.575 61.0209 196.668 60.0406 196.622L37.4935 195.361C35.883 195.291 34.4826 194.871 33.2222 194.101C34.8327 196.341 37.4236 197.882 40.3645 198.022L62.9112 199.212C63.8915 199.259 64.8251 199.166 65.712 198.932C69.7032 197.952 72.7144 194.521 72.9244 190.25C73.1345 186.538 71.2438 183.247 68.2329 181.497Z" fill="url(#paint14_linear_670_2053)"/>
<path d="M68.7231 197.672C70.9638 199.492 72.2942 202.363 72.1541 205.444C71.874 210.696 67.3928 214.757 62.1412 214.477L49.257 213.776" stroke="#0F479E" stroke-width="2.4" stroke-linecap="round" stroke-linejoin="round"/>
<path d="M55.909 160.771L58.0798 160.911C63.3314 161.191 67.3227 165.742 66.9726 170.994C66.6225 176.176 62.2109 180.167 56.9593 179.887C56.9593 179.887 56.9363 179.887 56.8896 179.887L50.5176 179.537" stroke="#0F479E" stroke-width="2.4" stroke-linecap="round" stroke-linejoin="round"/>
<path d="M45.6862 179.255L63.9615 180.236C69.2131 180.516 73.2045 184.997 72.9244 190.249C72.6443 195.5 68.1627 199.492 62.9111 199.212L46.0363 198.301" stroke="#0F479E" stroke-width="2.4" stroke-linecap="round" stroke-linejoin="round"/>
<path opacity="0.6" d="M378.988 171.063C384.73 164.971 384.379 155.448 378.357 149.777C372.266 144.035 362.673 144.385 357.001 150.407C356.908 150.5 356.814 150.617 356.721 150.757L327.662 181.706C327.522 181.846 327.405 181.986 327.312 182.127C321.57 188.148 321.92 197.741 327.942 203.413C334.034 209.085 343.557 208.805 349.299 202.713L378.988 171.063Z" fill="url(#paint15_linear_670_2053)"/>
<path d="M365.894 154.749C366.501 154.469 367.061 154.096 367.574 153.629L380.668 141.585C383.399 139.135 383.539 134.933 381.089 132.272C378.638 129.612 374.506 129.402 371.776 131.852L358.682 143.896C356.021 146.417 355.811 150.548 358.262 153.209C360.292 155.379 363.373 155.94 365.894 154.749Z" fill="#006CCE"/>
<path d="M359.872 164.903C362.673 163.572 364.213 160.421 363.443 157.34L360.292 144.876L360.502 133.813C360.572 130.172 357.701 127.231 354.06 127.091C350.419 127.021 347.408 129.962 347.338 133.533L347.128 145.507C347.128 146.067 347.198 146.65 347.338 147.257L350.699 160.561C351.609 164.062 355.181 166.233 358.682 165.323C359.102 165.229 359.498 165.089 359.872 164.903Z" fill="#108CE7"/>
<path d="M381.929 173.656C389.911 166.514 390.541 154.26 383.329 146.277C376.187 138.295 363.933 137.665 355.951 144.877C347.968 152.019 347.338 164.273 354.55 172.255C361.692 180.238 373.946 180.868 381.929 173.656Z" fill="#108CE7"/>
<path d="M386.27 150.478C385.476 148.985 384.496 147.584 383.329 146.277C377.097 139.345 367.014 137.945 359.242 142.426" stroke="#0F479E" stroke-width="1.7" stroke-linecap="round" stroke-linejoin="round"/>
<path d="M368.975 142.846C370.655 149.778 369.885 157.06 366.804 163.502L366.734 163.642" stroke="#0F479E" stroke-width="1.7" stroke-linecap="round" stroke-linejoin="round"/>
<path d="M384.73 169.594C385.336 169.314 385.873 168.964 386.34 168.544L395.093 160.632C397.754 158.251 397.964 154.05 395.583 151.389C393.132 148.658 389.001 148.448 386.27 150.899L377.517 158.741C374.857 161.192 374.647 165.323 377.097 168.054C379.058 170.224 382.209 170.785 384.73 169.594Z" fill="#108CE7"/>
<path d="M372.476 148.728C373.083 148.448 373.643 148.074 374.156 147.608L380.739 141.586C383.399 139.135 383.539 134.934 381.089 132.273C378.638 129.612 374.436 129.402 371.776 131.923L365.194 137.945C362.533 140.395 362.393 144.597 364.844 147.258C366.804 149.428 369.955 149.918 372.476 148.728Z" fill="#108CE7"/>
<path d="M377.657 161.752C378.264 161.472 378.801 161.122 379.268 160.702L390.892 150.198C393.622 147.748 393.832 143.616 391.382 140.886C388.931 138.225 384.8 138.015 382.069 140.465L370.515 150.899C367.784 153.349 367.574 157.481 370.025 160.211C371.986 162.382 375.137 162.942 377.657 161.752Z" fill="#108CE7"/>
<path d="M375.487 162.311C375.137 164.342 375.627 166.442 377.097 168.053C379.478 170.714 383.68 170.924 386.34 168.543L392.992 162.521" stroke="#0F479E" stroke-width="1.7" stroke-linecap="round" stroke-linejoin="round"/>
<path d="M366.314 136.894L365.194 137.945C362.533 140.395 362.393 144.597 364.844 147.257C367.294 149.918 371.426 150.058 374.087 147.677C374.087 147.677 374.11 147.654 374.156 147.607L377.377 144.667" stroke="#0F479E" stroke-width="1.7" stroke-linecap="round" stroke-linejoin="round"/>
<path d="M379.898 142.426L370.515 150.899C367.784 153.349 367.574 157.481 370.025 160.212C372.406 162.872 376.607 163.082 379.268 160.702L388.021 152.789" stroke="#0F479E" stroke-width="1.7" stroke-linecap="round" stroke-linejoin="round"/>
<path fill-rule="evenodd" clip-rule="evenodd" d="M123.41 171.764H123.48L118.788 171.834L118.578 159.37L122.99 159.3C123.036 159.3 123.06 159.3 123.06 159.3L123.27 159.23L123.2 159.3C126.491 159.37 129.222 162.031 129.222 165.392C129.292 168.823 126.701 171.624 123.41 171.764ZM126.631 165.462C126.561 163.571 125.09 162.031 123.27 161.961H121.239V162.451H121.309L121.379 168.613V169.103H123.41C125.23 168.963 126.631 167.353 126.631 165.462Z" fill="white"/>
<path d="M148.968 164.132C149.038 161.191 151.278 158.81 154.149 158.74C157.09 158.74 159.401 161.051 159.541 163.922L159.681 171.204L157.02 171.274L156.88 164.062C156.88 162.592 155.69 161.471 154.219 161.471C152.749 161.471 151.628 162.732 151.628 164.202L151.769 171.344H149.107L148.968 164.132Z" fill="white"/>
<path fill-rule="evenodd" clip-rule="evenodd" d="M174.665 163.712L174.805 170.994H172.144V168.333L166.823 168.403L166.893 171.064L164.232 171.134L164.092 163.852H164.162C164.162 160.981 166.473 158.6 169.344 158.53C172.214 158.46 174.595 160.771 174.665 163.712ZM172.075 163.852C172.005 162.381 170.814 161.191 169.344 161.191C167.873 161.261 166.753 162.451 166.753 163.922L166.823 165.742L172.075 165.672V163.852Z" fill="white"/>
<path fill-rule="evenodd" clip-rule="evenodd" d="M144.416 164.201L144.486 171.413L141.825 171.483V168.823L136.504 168.893L136.574 171.553L133.913 171.623L133.843 164.341C133.843 161.47 136.154 159.09 139.025 159.02C141.895 158.95 144.276 161.26 144.346 164.201H144.416ZM141.825 164.341C141.755 162.871 140.565 161.68 139.095 161.68C137.694 161.75 136.504 162.941 136.504 164.411L136.574 166.232L141.825 166.092V164.341Z" fill="white"/>
<path fill-rule="evenodd" clip-rule="evenodd" d="M114.097 165.602C114.167 172.464 108.845 178.066 102.123 178.206C95.401 178.276 89.8696 172.814 89.7295 166.022C89.6595 159.16 94.9812 153.558 101.703 153.418C108.425 153.348 113.957 158.81 114.097 165.602ZM108.985 162.311C108.985 162.031 108.845 161.798 108.565 161.611C107.235 160.771 105.834 160.631 104.364 161.121C103.454 161.401 102.613 161.681 101.773 162.031C100.723 162.451 99.7424 162.871 98.622 163.081C98.3419 163.128 98.0621 163.151 97.782 163.151C97.4085 163.151 97.035 163.128 96.6616 163.081C96.1014 162.941 95.5414 162.661 95.0512 162.381C94.9812 162.311 94.911 162.241 94.8409 162.311C94.7709 162.311 94.7709 162.451 94.7709 162.521C94.7709 162.988 94.7709 163.455 94.7709 163.922C94.7709 164.528 94.7709 165.112 94.7709 165.672C94.8175 166.933 94.8409 168.17 94.8409 169.383C94.8409 169.663 94.981 169.873 95.191 170.013C96.078 170.574 97.0584 170.807 98.1321 170.714C98.9723 170.714 99.7425 170.504 100.513 170.224C101.4 169.897 102.263 169.593 103.104 169.313C103.874 169.033 104.644 168.823 105.484 168.683C106.605 168.613 107.725 168.753 108.775 169.383C109.009 169.523 109.102 169.453 109.055 169.173C109.055 168.053 109.055 166.909 109.055 165.742V165.462C109.009 164.435 108.985 163.385 108.985 162.311Z" fill="white"/>
<defs>
<linearGradient id="paint0_linear_670_2053" x1="264.28" y1="14.113" x2="264.28" y2="129.425" gradientUnits="userSpaceOnUse">
<stop offset="0.427" stop-color="#F98901"/>
<stop offset="0.978" stop-color="#F98901" stop-opacity="0"/>
</linearGradient>
<linearGradient id="paint1_linear_670_2053" x1="205.556" y1="301.078" x2="205.556" y2="-42.5037" gradientUnits="userSpaceOnUse">
<stop offset="0.041" stop-color="#0F479E"/>
<stop offset="0.59" stop-color="#006CCE" stop-opacity="0"/>
</linearGradient>
<linearGradient id="paint2_linear_670_2053" x1="328.982" y1="256.669" x2="236.307" y2="256.669" gradientUnits="userSpaceOnUse">
<stop offset="0.041" stop-color="#0F479E"/>
<stop offset="0.59" stop-color="#006CCE" stop-opacity="0"/>
</linearGradient>
<linearGradient id="paint3_linear_670_2053" x1="236.713" y1="109.171" x2="236.713" y2="147.892" gradientUnits="userSpaceOnUse">
<stop offset="0.18" stop-color="#0F479E"/>
<stop offset="0.812" stop-color="#006CCE" stop-opacity="0"/>
</linearGradient>
<linearGradient id="paint4_linear_670_2053" x1="259.793" y1="184.1" x2="259.793" y2="117.729" gradientUnits="userSpaceOnUse">
<stop offset="0.18" stop-color="#0F479E"/>
<stop offset="0.812" stop-color="#006CCE" stop-opacity="0"/>
</linearGradient>
<linearGradient id="paint5_linear_670_2053" x1="246.554" y1="267.964" x2="246.554" y2="166.01" gradientUnits="userSpaceOnUse">
<stop stop-color="#4ADBFF"/>
<stop offset="0.499" stop-color="#4ADBFF" stop-opacity="0"/>
</linearGradient>
<linearGradient id="paint6_linear_670_2053" x1="274.32" y1="173.078" x2="274.32" y2="231.891" gradientUnits="userSpaceOnUse">
<stop offset="0.427" stop-color="#F98901"/>
<stop offset="0.978" stop-color="#F98901" stop-opacity="0"/>
</linearGradient>
<linearGradient id="paint7_linear_670_2053" x1="320.174" y1="237.553" x2="17.1564" y2="288.056" gradientUnits="userSpaceOnUse">
<stop offset="0.35" stop-color="#0F479E"/>
<stop offset="0.669" stop-color="#006CCE" stop-opacity="0"/>
</linearGradient>
<linearGradient id="paint8_linear_670_2053" x1="10.5617" y1="231.002" x2="214.971" y2="83.6331" gradientUnits="userSpaceOnUse">
<stop offset="0.188" stop-color="#FDA601"/>
<stop offset="0.992" stop-color="#FDA601" stop-opacity="0"/>
</linearGradient>
<linearGradient id="paint9_linear_670_2053" x1="82.0728" y1="44.3369" x2="47.136" y2="44.3373" gradientUnits="userSpaceOnUse">
<stop offset="0.08" stop-color="#0E4798"/>
<stop offset="0.963" stop-color="#006CCE" stop-opacity="0"/>
</linearGradient>
<linearGradient id="paint10_linear_670_2053" x1="1119.5" y1="327.721" x2="1119.5" y2="184.274" gradientUnits="userSpaceOnUse">
<stop stop-color="#0E4798"/>
<stop offset="0.963" stop-color="#006CCE" stop-opacity="0"/>
</linearGradient>
<linearGradient id="paint11_linear_670_2053" x1="-98.15" y1="-89.0111" x2="-143.796" y2="23.6231" gradientUnits="userSpaceOnUse">
<stop offset="0.17" stop-color="#64DBFF"/>
<stop offset="1" stop-color="#4CD6FB" stop-opacity="0"/>
</linearGradient>
<linearGradient id="paint12_linear_670_2053" x1="83.4752" y1="188.912" x2="52.4723" y2="222.102" gradientUnits="userSpaceOnUse">
<stop stop-color="#0E4798"/>
<stop offset="0.963" stop-color="#006CCE" stop-opacity="0"/>
</linearGradient>
<linearGradient id="paint13_linear_670_2053" x1="78.6068" y1="136.906" x2="25.3595" y2="210.878" gradientUnits="userSpaceOnUse">
<stop stop-color="#0E4798"/>
<stop offset="0.963" stop-color="#006CCE" stop-opacity="0"/>
</linearGradient>
<linearGradient id="paint14_linear_670_2053" x1="80.9069" y1="209.585" x2="45.4145" y2="198.025" gradientUnits="userSpaceOnUse">
<stop stop-color="#0E4798"/>
<stop offset="0.963" stop-color="#006CCE" stop-opacity="0"/>
</linearGradient>
<linearGradient id="paint15_linear_670_2053" x1="403.259" y1="283.428" x2="313.367" y2="200.222" gradientUnits="userSpaceOnUse">
<stop offset="0.487" stop-color="#0F479E"/>
<stop offset="0.982" stop-color="#006CCE" stop-opacity="0"/>
</linearGradient>
</defs>
</svg>
