<svg width="252" height="297" viewBox="0 0 252 297" fill="none" xmlns="http://www.w3.org/2000/svg">
<path d="M155.753 185.933V263.183C155.753 283.095 139.528 299.169 119.578 299.169H111.767C91.8165 299.169 75.7123 283.095 75.7123 263.183V194.81C84.9662 201.527 96.3834 205.366 108.762 205.366C127.15 205.366 143.735 197.929 155.753 185.933Z" fill="#FEAE06"/>
<path d="M155.753 185.933V263.183C155.753 283.095 139.528 299.169 119.578 299.169H111.767C91.8165 299.169 75.7123 283.095 75.7123 263.183V194.81C84.9662 201.527 96.3834 205.366 108.762 205.366C127.15 205.366 143.735 197.929 155.753 185.933Z" fill="url(#paint0_linear_357_15108)"/>
<path d="M175.102 130.394C167.771 128.594 160.92 123.436 156.954 116.239C156.233 115.16 155.633 113.84 155.032 112.761C153.349 109.282 151.787 106.043 148.902 104.004C147.34 102.924 145.417 102.325 143.374 101.605C141.331 101.005 139.168 100.285 137.365 98.9659C133.159 96.087 131.356 90.809 129.794 85.771C127.991 80.3731 126.308 75.2151 121.501 73.1759C119.939 72.5761 118.256 72.3362 116.333 72.0963C116.173 72.0963 115.973 72.0963 115.732 72.0963C114.05 71.8564 112.367 71.6165 110.805 70.8968C105.878 68.8576 103.834 63.8195 102.032 58.9014C101.952 58.8215 101.912 58.7415 101.912 58.6615C101.832 58.5016 101.751 58.3417 101.671 58.1817C100.349 54.823 99.0273 51.3444 96.6236 48.8254C93.3787 45.2268 86.1679 45.3467 79.9185 45.4667C79.7583 45.4667 79.6381 45.4667 79.558 45.4667C79.3978 45.4667 79.2375 45.4667 79.0772 45.4667C75.1113 45.4667 71.3856 45.4667 68.982 44.627C58.2859 55.7827 51.676 70.7768 51.676 87.3304V148.387C51.676 179.814 77.2745 205.365 108.762 205.365C145.417 205.365 175.102 175.736 175.102 139.15V130.394Z" fill="#FEAE06"/>
<path d="M143.735 183.774C141.932 186.053 138.807 187.612 135.202 187.732C129.674 187.732 125.227 184.254 125.107 179.935C125.107 175.497 129.433 171.898 134.961 171.898C139.649 171.778 143.615 174.178 144.816 177.656C171.497 173.338 183.755 149.107 183.875 148.747C184.596 147.188 186.399 146.708 187.841 147.428C189.403 148.148 190.004 149.947 189.283 151.386C188.562 152.706 174.862 180.055 143.735 183.774Z" fill="#F48D1C"/>
<path d="M75.4718 88.6519C75.1113 88.6519 74.7508 88.292 74.7508 87.9322C74.871 87.5723 75.1113 87.3324 75.4718 87.3324C80.1589 87.4524 85.2065 89.0117 89.6532 91.6507C94.0999 94.4096 97.7053 98.2481 99.6282 102.806C100.59 105.325 100.83 108.084 100.83 110.843C100.83 112.283 100.71 113.602 100.59 115.042C100.51 116.401 100.469 117.681 100.469 118.88C100.349 123.678 98.9071 128.356 96.2631 132.435L94.9412 134.354C92.8981 137.593 95.1815 141.791 99.0273 141.791H105.036C105.397 141.791 105.637 142.031 105.637 142.391C105.637 142.751 105.397 143.111 105.036 143.111H99.0273C94.0999 143.111 91.3357 137.833 93.8595 133.754L95.1815 131.715C97.7053 127.877 99.1475 123.438 99.1475 118.88C99.2276 117.601 99.3078 116.321 99.3879 115.042V114.922C99.468 113.562 99.508 112.203 99.508 110.843C99.6282 108.204 99.3878 105.565 98.4264 103.286C96.7438 98.9679 93.2586 95.3693 88.9321 92.8502C84.7258 90.2113 79.9185 88.6519 75.4718 88.6519ZM125.107 149.108C125.347 148.868 125.707 148.868 125.948 149.108C126.188 149.348 126.188 149.708 125.948 149.948C120.179 156.306 112.007 160.024 103.354 160.024C102.993 160.024 102.753 159.784 102.753 159.424C102.753 159.064 102.993 158.705 103.354 158.705C111.646 158.705 119.458 155.226 125.107 149.108Z" fill="#EA501B"/>
<path d="M127.751 117.441C127.751 122.479 131.957 126.677 137.005 126.677C139.889 126.677 142.413 125.477 144.095 123.438C142.172 127.397 138.327 130.156 134 130.156C127.63 130.156 122.583 124.398 122.583 117.441C122.583 116.721 122.623 116.041 122.703 115.401C122.943 115.082 123.144 114.762 123.304 114.442C123.544 114.082 123.785 113.842 124.145 113.362C124.386 113.202 124.586 113.002 124.746 112.762C124.826 112.602 124.906 112.443 124.986 112.283C125.347 111.803 126.068 110.963 127.03 110.003C127.991 109.164 129.313 108.324 130.635 107.844C131.957 107.364 133.159 107.125 134.12 107.125H135.322C135.562 107.125 135.683 107.125 135.683 107.125C135.683 107.125 135.803 107.125 136.043 107.245C136.203 107.245 136.404 107.285 136.644 107.365C136.804 107.444 137.005 107.484 137.245 107.484C137.846 107.724 138.687 107.964 139.528 108.444C138.727 108.204 137.886 108.084 137.005 108.084C131.957 108.084 127.751 112.283 127.751 117.441ZM66.3382 117.441C66.3382 122.479 70.5445 126.677 75.7123 126.677C79.7984 126.677 83.1635 124.038 84.4855 120.439C83.1635 125.957 78.4764 130.156 72.8279 130.156C66.0978 130.156 60.8098 124.398 60.8098 117.441C60.8098 116.881 60.8098 116.321 60.8098 115.761C61.4107 115.401 61.7713 114.802 62.1319 114.082C62.212 114.002 62.252 113.962 62.252 113.962C62.4924 113.642 62.6927 113.282 62.8529 112.882C63.1734 112.483 63.4538 112.083 63.6942 111.683C64.4153 110.723 65.3767 109.764 66.5785 109.044C67.5399 108.204 68.7418 107.724 69.7032 107.484C69.9436 107.484 70.1439 107.444 70.3041 107.365C70.4644 107.285 70.6246 107.245 70.7848 107.245C71.0252 107.125 71.1454 107.125 71.1454 107.125C71.1454 107.125 71.3857 107.125 71.6261 107.125H72.7078C73.6692 107.125 74.9911 107.364 76.193 107.844C76.5936 107.924 76.9141 108.044 77.1545 108.204C76.6737 108.124 76.193 108.084 75.7123 108.084C70.5445 108.084 66.3382 112.283 66.3382 117.441Z" fill="white"/>
<path fill-rule="evenodd" clip-rule="evenodd" d="M2.28168 133.754C-0.362305 142.03 -0.00175476 151.267 2.88258 159.544C6.36783 169.74 13.2182 178.256 21.6309 184.494C15.6218 192.171 12.4971 201.647 13.2182 210.764C14.42 226.598 28.1206 240.512 43.0231 241.232C41.8213 245.91 42.5424 250.948 45.3065 255.746C48.0707 260.664 52.5174 264.863 57.6852 267.142C63.2135 269.661 69.3427 270.62 75.4719 270.86C75.8725 271.1 76.2731 271.34 76.6737 271.58C76.0328 268.861 75.7123 266.062 75.7123 263.183V194.81C61.1704 184.494 51.6761 167.581 51.6761 148.388V87.3317C51.6761 70.7782 58.286 55.784 68.9821 44.6283C71.3857 45.468 75.1114 45.468 79.0774 45.468H79.5581H79.9186C86.168 45.348 93.3789 45.2281 96.6237 48.8267C99.0274 51.3457 100.349 54.8244 101.671 58.183L101.912 58.6629L102.032 58.9028C103.835 63.8208 105.878 68.8589 110.805 70.8981C112.368 71.6178 114.05 71.8577 115.733 72.0976C115.973 72.0976 116.173 72.0976 116.333 72.0976C118.256 72.3375 119.939 72.5774 121.501 73.1772C126.308 75.2164 127.991 80.3744 129.794 85.7723C130.034 86.7319 130.315 87.6516 130.635 88.5312C128.472 88.7712 126.349 89.171 124.265 89.7308C123.304 89.9707 122.703 91.0503 122.943 92.0099C123.304 92.9695 124.265 93.4493 125.227 93.2094C127.47 92.5697 129.714 92.1698 131.957 92.0099C133.279 94.7688 134.841 97.2878 137.365 98.9672C139.168 100.287 141.331 101.006 143.374 101.606C145.417 102.326 147.34 102.926 148.902 104.005C151.787 106.044 153.349 109.283 155.032 112.762C155.633 113.841 156.234 115.161 156.955 116.24C160.921 123.438 167.771 128.596 175.102 130.395V139.152C175.102 157.384 167.771 173.938 155.753 185.933V263.183C155.753 265.822 155.472 268.421 154.912 270.98C168.973 267.742 183.755 261.984 189.283 249.509C202.984 246.15 214.041 238.833 220.41 228.997C227.741 217.721 228.102 203.087 221.612 193.011C234.952 183.654 243.245 174.538 247.932 164.462C253.099 153.306 253.941 137.112 244.326 126.197C243.124 124.997 241.923 123.917 240.841 122.718C240.52 122.478 240.24 122.238 240 121.998C236.635 118.879 233.51 116.001 232.308 111.922C231.827 109.643 231.827 107.244 232.068 104.725C232.068 103.286 232.188 101.846 232.068 100.407C231.827 92.4897 227.02 85.0526 220.05 81.454C219.729 81.2941 219.409 81.1341 219.088 80.9742C218.768 80.8142 218.447 80.6543 218.127 80.4944C216.685 79.8946 215.242 79.1749 214.041 78.2153C210.916 75.6962 210.075 71.3779 209.354 67.2995L209.233 66.8197L209.113 65.6201C206.349 50.8659 200.1 39.4703 190.004 31.0736C181.231 23.7564 169.574 18.5984 154.19 15.1198C147.821 13.8003 141.932 11.4012 136.283 9.00217C128.712 6.00334 120.9 2.88455 112.247 1.92492C96.3834 0.12562 80.8801 2.40473 67.2996 8.28244C62.7328 10.3217 52.7577 15.7196 50.8348 25.0759C50.6746 25.1559 50.5544 25.1959 50.4743 25.1959C50.3141 25.1959 50.1538 25.2358 49.9935 25.3158C46.8688 25.7956 43.7442 26.8752 41.1002 28.6745C39.0571 30.114 37.014 31.6733 35.4517 33.4726C33.649 35.3919 32.4472 37.671 31.4857 40.19C30.6445 42.3492 30.0435 44.7483 30.0435 47.1473C30.0435 48.107 30.0836 49.0666 30.1637 50.0262C30.2839 51.2257 30.4041 52.4253 30.2839 53.6248V54.3445C30.2839 54.3445 30.2839 54.3845 30.2839 54.4645C30.2839 54.5445 30.2839 54.5844 30.2839 54.5844C30.2038 54.6644 30.1637 54.7844 30.1637 54.9443C30.1637 55.0243 30.1237 55.1042 30.0435 55.1842C30.0435 55.1842 30.0435 55.2242 30.0435 55.3042C29.9234 55.5441 29.8031 55.784 29.5628 56.0239C29.4827 56.1838 29.4025 56.3038 29.3224 56.3837C29.082 56.6237 28.8417 56.8635 28.6013 57.1035C28.361 57.3434 28.0005 57.5833 27.6399 57.8232C27.6399 57.8232 27.6399 57.8632 27.6399 57.9431C27.5598 57.9431 27.5197 57.9431 27.5197 57.9431C27.039 58.423 26.4381 58.7828 25.9574 59.1427C25.2363 59.7025 24.5152 60.3422 23.7941 61.0619C17.1841 66.8197 12.2567 74.3767 9.37239 82.6535C7.93021 87.4517 7.08896 92.4897 7.20914 97.4078C7.20914 100.047 7.44948 102.686 7.93019 105.205C8.41092 106.884 8.89163 108.683 9.49254 110.243V110.603C9.57266 110.683 9.61276 110.803 9.61276 110.963C9.69289 111.122 9.77301 111.282 9.85313 111.442C10.0935 112.402 10.454 113.482 10.5742 114.561C10.5742 114.561 10.6944 115.281 10.6944 115.161C10.6944 115.241 10.6944 115.281 10.6944 115.281V117.08C10.6142 117.16 10.5742 117.28 10.5742 117.44C10.5742 117.52 10.5742 117.6 10.5742 117.68C10.4941 117.76 10.454 117.88 10.454 118.04C10.454 118.04 10.454 118.08 10.454 118.16C10.3739 118.24 10.3338 118.36 10.3338 118.52C10.2537 118.52 10.2137 118.56 10.2137 118.64C10.0935 118.999 9.97328 119.239 9.73291 119.599C9.65279 119.759 9.57266 119.879 9.49254 119.959C9.41241 120.039 9.33235 120.159 9.25223 120.319C9.13205 120.559 8.89169 120.919 8.65132 121.279C8.33084 121.678 8.05042 122.118 7.81004 122.598C6.72842 124.037 5.76698 125.477 5.0459 127.036C3.96426 129.195 3.00276 131.355 2.28168 133.754ZM30.6444 54.1046C30.6444 54.0247 30.6444 53.9447 30.6444 53.8647C30.6444 53.8647 30.6444 54.1046 30.5242 54.2246C30.5242 54.1446 30.5643 54.1046 30.6444 54.1046ZM144.095 176.697C144.095 172.139 139.408 168.3 133.519 168.3C127.63 168.3 122.943 172.139 122.943 176.697C122.943 181.375 127.63 185.094 133.519 185.094C139.408 185.094 144.095 181.375 144.095 176.697ZM82.8029 88.1714C74.9912 85.6524 66.8189 85.6524 60.2089 88.5312H60.0888C59.2475 88.8911 58.7668 89.7308 59.0071 90.5704C59.3677 91.4101 60.2089 91.8899 61.0502 91.5301H61.2906C61.2906 91.5301 61.3306 91.4901 61.4107 91.4101C67.1794 88.8911 74.6307 88.7711 81.7214 91.1702C82.5626 91.4101 83.5241 91.0503 83.7645 90.2106C84.0048 89.3709 83.524 88.4113 82.8029 88.1714ZM127.751 117.44C127.751 122.478 131.957 126.676 137.005 126.676C142.172 126.676 146.379 122.478 146.379 117.44C146.379 116.96 146.339 116.48 146.259 116.001C146.499 116.16 146.699 116.32 146.859 116.48C147.34 116.72 147.941 116.72 148.422 116.72C149.263 116.72 149.744 116.36 149.984 115.761C150.224 115.521 150.345 115.281 150.465 115.041C151.186 113.841 151.667 112.522 151.907 111.202C152.027 110.723 152.147 110.003 152.027 109.403C152.027 109.043 151.907 107.844 151.426 107.844H151.306C150.705 107.844 150.225 108.084 149.624 108.204C149.223 108.364 148.822 108.483 148.422 108.563C148.181 108.324 147.821 107.844 147.46 107.604C146.259 106.284 144.576 104.965 142.893 104.005C141.091 103.166 139.408 102.686 138.086 102.566H137.966C137.365 102.446 136.884 102.326 136.524 102.446H135.322C135.162 102.526 134.921 102.566 134.601 102.566C134.361 102.566 134.08 102.566 133.76 102.566C132.438 102.806 130.755 103.405 129.073 104.245C127.51 105.205 125.948 106.524 124.987 107.844C124.025 108.923 123.424 110.003 123.064 110.603C123.064 110.683 123.024 110.723 122.943 110.723C122.943 110.803 122.943 110.843 122.943 110.843C121.862 113.122 121.862 114.681 121.862 116.72L122.583 115.521C122.823 115.041 123.064 114.801 123.304 114.441C123.544 114.081 123.785 113.841 124.145 113.362C124.386 113.202 124.586 113.002 124.746 112.762C124.826 112.602 124.906 112.442 124.987 112.282C125.347 111.802 126.068 110.963 127.03 110.003C127.991 109.163 129.313 108.324 130.635 107.844C131.957 107.364 133.159 107.124 134.12 107.124H135.322C135.562 107.124 135.683 107.124 135.683 107.124C135.683 107.124 135.803 107.124 136.043 107.244C136.203 107.244 136.404 107.284 136.644 107.364C136.804 107.444 137.005 107.484 137.245 107.484C137.846 107.724 138.687 107.964 139.528 108.443C138.727 108.204 137.886 108.084 137.005 108.084C131.957 108.084 127.751 112.282 127.751 117.44ZM66.3382 117.44C66.3382 122.478 70.5445 126.676 75.7123 126.676C80.7599 126.676 84.9663 122.478 84.9663 117.44C84.9663 117.12 84.9663 116.84 84.9663 116.6V116.72C85.0864 114.681 85.0864 113.122 83.8846 110.843C83.8846 110.763 83.8846 110.683 83.8846 110.603C83.524 110.003 82.9232 108.923 81.9617 107.844C80.8801 106.524 79.3177 105.205 77.7554 104.245C76.193 103.405 74.3903 102.806 73.0683 102.566C72.8279 102.566 72.5876 102.566 72.3472 102.566C72.0268 102.566 71.7463 102.526 71.506 102.446H70.4243C70.0638 102.326 69.4629 102.446 68.862 102.566H68.7418C67.54 102.686 65.7373 103.166 63.9346 104.005C62.252 104.965 60.5695 106.284 59.3676 107.604C59.0071 107.844 58.6466 108.324 58.4062 108.563C58.0857 108.483 57.7252 108.364 57.3246 108.204C56.7237 108.084 56.1228 107.844 55.5219 107.844H55.4017C55.0412 107.844 54.8008 109.043 54.8008 109.403C54.8008 110.003 54.8008 110.723 55.0412 111.202C55.2815 112.522 55.7622 113.841 56.3631 115.041C56.4833 115.281 56.7237 115.521 56.8439 115.761C57.2044 116.36 57.6851 116.72 58.4062 116.72C58.8869 116.72 59.4878 116.72 59.9686 116.48C60.93 116.001 61.531 115.041 62.1319 114.081C62.212 114.001 62.252 113.961 62.252 113.961C62.4924 113.641 62.6927 113.282 62.8529 112.882C63.1734 112.482 63.4538 112.082 63.6942 111.682C64.4153 110.723 65.3767 109.763 66.5785 109.043C67.5399 108.204 68.7418 107.724 69.7033 107.484C69.9436 107.484 70.1439 107.444 70.3042 107.364C70.4644 107.284 70.6246 107.244 70.7848 107.244C71.0252 107.124 71.1454 107.124 71.1454 107.124C71.1454 107.124 71.3858 107.124 71.6261 107.124H72.7078C73.6692 107.124 74.9912 107.364 76.193 107.844C76.5936 107.924 76.9141 108.044 77.1545 108.204C76.6738 108.124 76.193 108.084 75.7123 108.084C70.5445 108.084 66.3382 112.282 66.3382 117.44Z" fill="#0F479E"/>
<path d="M62.4924 134.474C61.531 134.474 60.8099 133.634 60.8099 132.795C60.8099 131.835 61.531 131.115 62.4924 131.115C63.3337 131.115 64.1749 131.835 64.1749 132.795C64.1749 133.634 63.3337 134.474 62.4924 134.474Z" fill="#C47133"/>
<path fill-rule="evenodd" clip-rule="evenodd" d="M73.7893 21.8373C80.2791 20.7577 87.1294 22.4371 92.2972 26.3956C91.8165 26.7954 91.3357 27.1952 90.855 27.5951L90.4945 27.9549C90.1339 28.3148 90.1339 28.7946 90.4945 29.0345C90.7348 29.3944 91.2156 29.3944 91.5761 29.0345L91.9367 28.6747C98.787 22.1972 109.363 21.9573 116.694 27.835C117.054 28.0749 117.535 28.0749 117.776 27.715C118.136 27.3552 118.016 26.8754 117.776 26.6355C110.685 20.8777 100.71 20.6378 93.3789 25.6758C87.8505 21.3575 80.5195 19.5582 73.6691 20.6378C66.8188 21.8373 60.3291 25.9157 56.4833 31.6735C56.2429 32.0334 56.3631 32.3932 56.6034 32.5132C56.8438 32.7531 57.2043 32.6331 57.4447 32.3932C61.1703 26.8754 67.2995 22.9169 73.7893 21.8373ZM222.213 190.492C219.809 194.33 215.723 197.329 211.276 198.289C210.916 198.409 210.796 198.769 210.796 199.008C210.916 199.368 211.276 199.608 211.517 199.488C216.324 198.409 220.651 195.29 223.174 191.092C225.818 186.773 226.419 181.495 224.977 176.697C224.857 176.457 224.496 176.217 224.256 176.337C223.895 176.457 223.775 176.817 223.775 177.057C225.097 181.615 224.616 186.533 222.213 190.492Z" fill="#64DBFF"/>
<path d="M51.3157 295.691C70.3043 303.128 91.0956 307.326 112.728 307.326C134.841 307.326 155.873 303.008 175.222 295.331L170.055 225.518C169.814 222.639 167.531 220.48 164.767 220.36L66.2181 217.721C63.454 217.721 61.0504 219.76 60.6898 222.519L51.3157 295.691Z" fill="#1385E5"/>
<path fill-rule="evenodd" clip-rule="evenodd" d="M171.136 240.152L170.055 225.518C169.974 224.718 169.734 223.958 169.333 223.239C164.286 224.198 159.599 226.717 155.873 230.436C151.066 235.354 148.422 242.071 148.422 248.909C148.422 249.508 148.422 249.988 148.422 250.588C148.662 250.588 148.943 250.588 149.263 250.588C149.504 250.588 149.744 250.588 149.984 250.588H150.104C157.075 250.708 163.565 248.069 168.612 243.031C169.494 242.151 170.335 241.192 171.136 240.152ZM174.141 281.776L173.179 267.621C171.977 265.382 170.455 263.383 168.612 261.624C163.324 256.226 155.993 253.587 148.422 254.067C148.422 254.386 148.422 254.666 148.422 254.906C148.422 255.146 148.422 255.386 148.422 255.626C148.302 262.703 150.946 269.301 155.993 274.219C160.921 279.137 167.41 281.776 174.141 281.776ZM150.585 303.007C159.078 301.008 167.29 298.449 175.222 295.33L174.621 287.653C167.651 287.534 160.921 290.172 155.873 295.211C153.71 297.49 151.907 300.129 150.585 303.007ZM123.905 306.966C130.475 306.486 136.965 305.646 143.374 304.447C142.052 301.088 140.129 297.85 137.365 295.211C132.077 289.813 124.746 287.174 117.175 287.653C116.694 294.731 119.098 301.688 123.905 306.966ZM85.0866 305.047C91.4962 306.086 98.026 306.766 104.676 307.086C109.483 301.808 112.007 294.851 111.406 287.653C103.955 287.174 96.6239 289.813 91.2158 295.211C88.4516 298.089 86.4085 301.328 85.0866 305.047ZM53.3587 296.41C61.3708 299.529 69.7034 301.968 78.3565 303.727C77.0345 300.608 75.1115 297.73 72.5877 295.211C67.2997 289.813 59.9687 287.174 52.3973 287.653C52.2771 290.652 52.5175 293.651 53.3587 296.41ZM72.7079 274.219C77.9959 268.821 80.7601 261.504 80.1592 254.067H76.9143C70.5447 254.306 64.6558 256.945 60.0889 261.504C57.8055 263.783 56.0027 266.302 54.8009 269.061L53.1184 281.776C60.4495 282.136 67.42 279.377 72.7079 274.219ZM59.9687 243.031C64.5356 247.589 70.5447 250.228 76.9143 250.588C77.5152 250.468 78.1161 250.588 78.717 250.588C79.0375 250.588 79.3579 250.588 79.6784 250.588H80.1592C80.1592 250.268 80.1592 249.988 80.1592 249.748C80.2393 249.508 80.2793 249.228 80.2793 248.909C80.2793 242.071 77.6353 235.354 72.5877 230.436C69.2226 227.077 65.1365 224.678 60.5696 223.598L58.2862 241.232C58.8471 241.871 59.4079 242.471 59.9687 243.031ZM143.494 250.588C143.815 250.588 144.136 250.588 144.456 250.588H144.937C144.937 250.268 144.937 249.988 144.937 249.748C145.017 249.508 145.057 249.228 145.057 248.909C145.057 242.071 142.413 235.354 137.365 230.436C132.077 225.038 124.746 222.279 117.175 222.879C116.694 230.436 119.338 237.633 124.746 243.031C129.313 247.589 135.322 250.228 141.692 250.588C142.293 250.468 142.894 250.588 143.494 250.588ZM117.175 281.656C124.746 282.256 132.077 279.497 137.365 274.219C142.773 268.821 145.538 261.504 144.937 254.067H141.692C135.322 254.306 129.433 256.945 124.866 261.504C119.338 266.902 116.694 274.219 117.175 281.656ZM111.526 281.776C112.127 274.219 109.363 267.021 103.955 261.624C98.667 256.226 91.336 253.587 83.7646 254.067C83.6444 254.666 83.6444 255.146 83.6444 255.626C83.6444 262.703 86.2884 269.301 91.336 274.219C96.7441 279.617 103.955 282.376 111.526 281.776ZM83.7646 250.588C84.005 250.588 84.2853 250.588 84.6058 250.588C84.8462 250.588 85.0866 250.588 85.3269 250.588H85.4471C92.4176 250.708 98.9074 248.069 103.955 243.031C109.243 237.633 112.007 230.436 111.406 222.879C103.955 222.279 96.6239 225.038 91.2158 230.436C86.2883 235.354 83.6444 242.071 83.7646 248.909C83.7646 249.508 83.7646 249.988 83.7646 250.588ZM114.891 248.429C115.252 248.189 115.492 247.829 115.492 247.349C115.733 245.91 114.891 244.59 113.569 244.35C112.969 244.23 112.247 244.23 111.647 244.59C111.166 245.07 110.685 245.67 110.565 246.27C110.445 246.39 110.445 246.629 110.445 246.749V246.869C110.445 247.229 110.565 247.589 110.685 247.829C111.406 248.069 112.127 248.549 112.608 249.148C113.089 248.789 113.569 248.549 114.05 248.429H114.891ZM120.9 249.028C121.021 248.789 121.021 248.549 121.021 248.309C120.901 247.349 120.179 246.39 119.218 246.15C118.857 246.03 118.497 246.03 118.256 246.03C117.776 246.15 117.295 246.27 116.814 246.629C116.814 247.469 116.574 248.309 116.093 248.909C116.814 249.508 117.295 250.108 117.415 250.948C117.776 251.068 118.016 251.188 118.256 251.188C118.857 251.188 119.458 251.068 120.059 250.588C120.54 250.228 120.9 249.748 120.9 249.028ZM112.608 251.548C112.608 252.507 113.449 253.347 114.411 253.347C115.492 253.347 116.334 252.507 116.334 251.548C116.334 250.468 115.492 249.748 114.411 249.748C113.449 249.748 112.608 250.468 112.608 251.548ZM117.776 256.945C118.016 256.945 118.257 256.945 118.617 256.945C119.699 256.945 120.66 256.106 120.9 255.146C120.9 254.786 120.9 254.426 120.9 254.187C120.82 253.387 120.42 252.747 119.699 252.267C119.458 252.387 119.218 252.507 118.857 252.507C118.377 252.507 117.776 252.507 117.295 252.267C117.055 253.107 116.574 253.827 115.853 254.187V254.426C115.853 254.906 116.093 255.266 116.213 255.626C116.574 256.226 117.055 256.706 117.776 256.945ZM115.372 256.825C115.012 256.346 114.651 255.746 114.651 255.146C114.531 255.026 114.531 254.786 114.531 254.546C113.73 254.546 113.009 254.306 112.368 253.827C111.807 253.907 111.326 254.186 110.925 254.666C110.685 255.026 110.565 255.386 110.445 255.746C110.284 256.626 110.525 257.385 111.166 258.025C111.526 258.385 112.007 258.625 112.488 258.625C113.93 258.865 115.132 258.025 115.372 256.825ZM107.44 250.348C107.28 250.508 107.2 250.788 107.2 251.188V251.428C107.2 252.507 107.921 253.587 109.003 253.827C109.243 253.947 109.603 253.947 109.844 253.947C109.964 253.827 110.084 253.587 110.325 253.467C110.685 253.107 111.286 252.747 111.767 252.507V252.387C111.526 252.027 111.526 251.667 111.526 251.308C111.526 250.948 111.647 250.468 111.767 250.228C111.366 249.588 110.805 249.148 110.084 248.909H109.363C108.402 249.148 107.761 249.628 107.44 250.348ZM147.1 282.136C147.34 281.896 147.581 281.416 147.701 280.936C147.941 279.617 147.1 278.297 145.778 278.057C145.177 277.817 144.456 277.937 143.855 278.297C143.254 278.777 142.894 279.257 142.773 279.976C142.653 280.096 142.653 280.336 142.653 280.456V280.576C142.653 280.936 142.773 281.176 142.773 281.416C143.615 281.656 144.336 282.136 144.817 282.855C145.177 282.495 145.658 282.256 146.138 282.136H147.1ZM153.229 282.735C153.349 282.495 153.349 282.256 153.349 282.016C153.229 280.936 152.508 279.976 151.426 279.737C151.186 279.737 150.826 279.737 150.585 279.737C149.984 279.737 149.504 279.976 149.143 280.336C149.143 281.136 148.903 281.896 148.422 282.615C149.023 283.095 149.504 283.815 149.744 284.535C149.984 284.775 150.225 284.775 150.465 284.775C151.186 284.895 151.787 284.775 152.388 284.295C152.869 283.815 153.109 283.335 153.229 282.735ZM144.937 285.134C144.937 286.214 145.658 286.934 146.739 286.934C147.821 286.934 148.542 286.214 148.542 285.134C148.542 284.055 147.821 283.335 146.739 283.335C145.658 283.335 144.937 284.055 144.937 285.134ZM150.104 290.532C150.345 290.532 150.585 290.532 150.946 290.532C151.907 290.532 152.869 289.813 153.109 288.733C153.229 288.373 153.229 288.133 153.229 287.893C153.109 286.934 152.748 286.334 152.027 285.854C151.787 285.974 151.426 286.094 151.186 286.094C150.705 286.094 150.104 286.094 149.624 285.974C149.383 286.774 148.903 287.374 148.182 287.773V288.133C148.182 288.493 148.302 288.853 148.542 289.213C148.903 289.813 149.383 290.292 150.104 290.532ZM147.701 290.532C147.34 290.053 146.98 289.453 146.86 288.853C146.86 288.613 146.86 288.493 146.86 288.253C146.018 288.253 145.297 288.013 144.696 287.414C144.095 287.534 143.615 287.893 143.254 288.373C143.014 288.693 142.854 289.053 142.773 289.453C142.533 290.292 142.773 291.012 143.494 291.732C143.855 291.972 144.216 292.212 144.817 292.332C146.139 292.452 147.46 291.732 147.701 290.532ZM139.649 284.055C139.489 284.215 139.408 284.455 139.408 284.775V285.134C139.408 286.214 140.129 287.174 141.331 287.534C141.572 287.653 141.812 287.653 142.052 287.653H142.173C142.293 287.414 142.413 287.294 142.533 287.174C143.014 286.694 143.494 286.454 144.095 286.214C143.975 286.214 143.975 286.094 143.975 286.094C143.855 285.734 143.855 285.374 143.855 285.014C143.855 284.535 143.975 284.175 144.095 283.815C143.695 283.175 143.134 282.775 142.413 282.615H141.572C140.61 282.695 139.969 283.175 139.649 284.055ZM81.2408 278.057C80.6398 277.817 79.9188 277.937 79.3179 278.297C78.8372 278.777 78.3564 279.257 78.2362 279.976C78.116 280.096 78.1161 280.336 78.1161 280.456V280.576C78.1161 280.936 78.2363 281.176 78.3565 281.416C79.0775 281.656 79.7986 282.136 80.2793 282.855C80.76 282.495 81.2408 282.256 81.7215 282.136H82.5628C82.9233 281.896 83.1637 281.416 83.1637 280.936C83.4041 279.617 82.5627 278.297 81.2408 278.057ZM85.9278 284.775C86.5287 284.895 87.2498 284.775 87.7306 284.295C88.2113 283.815 88.4516 283.335 88.692 282.735C88.692 282.495 88.692 282.256 88.692 282.016C88.692 280.936 87.9709 279.976 86.8893 279.737C86.5287 279.737 86.2884 279.737 86.048 279.737C85.4471 279.737 84.9663 279.976 84.6058 280.336C84.6058 281.136 84.3655 281.896 83.8848 282.615C84.4856 283.095 84.9664 283.815 85.0866 284.535C85.4471 284.775 85.6875 284.775 85.9278 284.775ZM84.0049 285.134C84.0049 284.055 83.1636 283.335 82.2022 283.335C81.1206 283.335 80.2793 284.055 80.2793 285.134C80.2793 286.214 81.1206 286.934 82.2022 286.934C83.1636 286.934 84.0049 286.214 84.0049 285.134ZM83.6444 288.133C83.6444 288.493 83.7646 288.853 83.8848 289.213C84.3655 289.813 84.8462 290.292 85.5673 290.532C85.8077 290.532 86.048 290.532 86.2884 290.532C87.37 290.532 88.3315 289.813 88.5718 288.733C88.692 288.373 88.692 288.133 88.692 287.893C88.5718 286.934 88.2113 286.334 87.4902 285.854C87.2498 285.974 86.8893 286.094 86.5287 286.094C86.048 286.094 85.5673 286.094 85.0866 285.974C84.8462 286.774 84.3655 287.374 83.6444 287.773V288.133ZM78.8371 291.732C79.3179 292.092 79.6784 292.332 80.2793 292.332C81.4811 292.572 82.8031 291.732 83.1637 290.532C82.683 290.053 82.4426 289.453 82.3224 288.853C82.2022 288.733 82.2022 288.493 82.2022 288.253C81.4811 288.253 80.76 288.013 80.0389 287.534C79.5582 287.534 79.0775 287.893 78.5968 288.373C78.3564 288.693 78.1962 289.053 78.1161 289.453C77.9959 290.412 78.2362 291.132 78.8371 291.732ZM77.7555 282.735H76.9143C76.0329 282.815 75.3919 283.295 74.9913 284.175C74.8311 284.335 74.751 284.575 74.751 284.895V285.134C74.751 286.334 75.4721 287.294 76.6739 287.534C76.9143 287.653 77.1546 287.653 77.3949 287.653H77.5152C77.6354 287.534 77.7555 287.294 77.8757 287.174C78.3564 286.814 78.8371 286.454 79.438 286.214C79.3179 286.214 79.3179 286.094 79.3179 286.094C79.1977 285.734 79.1977 285.374 79.1977 285.014C79.1977 284.655 79.3179 284.175 79.438 283.935C79.0374 283.295 78.4766 282.895 77.7555 282.735Z" fill="white"/>
<path d="M124.987 212.203H169.333L170.055 223.959H59.0073L59.7284 212.203H104.075C104.075 212.203 111.406 211.723 114.531 217.601C117.656 211.723 124.987 212.203 124.987 212.203Z" fill="#003582"/>
<path d="M160.199 123.078C159.358 140.351 169.213 154.746 182.072 155.225C190.365 155.705 202.263 154.386 206.71 145.749L215.122 128.956L209.233 103.885C205.267 96.5682 192.168 93.3295 184.837 92.9696C171.977 92.3698 160.921 105.925 160.199 123.078ZM42.4221 124.277C42.4221 134.833 46.0275 144.43 51.7962 151.147C51.7161 150.267 51.6761 149.348 51.6761 148.388V97.5278C46.0275 104.245 42.4221 113.722 42.4221 124.277Z" fill="#0061D3"/>
<path fill-rule="evenodd" clip-rule="evenodd" d="M84.726 12.9594C113.69 0.36426 152.628 9.60067 169.093 36.5902C179.429 53.6236 183.395 74.2555 184.236 94.4077C175.583 99.0859 169.213 110.242 168.612 123.436C168.011 136.391 173.179 147.907 181.231 153.425C179.429 155.584 177.265 158.103 174.741 160.622C167.771 167.219 157.556 173.937 144.095 175.976C144.095 176.216 144.095 176.456 144.095 176.696C144.095 177.735 143.895 178.695 143.494 179.575C158.517 177.655 169.694 170.338 177.145 163.141C180.15 160.382 182.433 157.623 184.356 155.224C186.519 156.304 188.923 156.903 191.326 157.023C204.787 157.503 216.324 143.469 217.045 125.596C217.886 107.723 207.671 92.7283 194.331 92.1286C193.289 92.0486 192.288 92.0486 191.326 92.1286C190.245 71.9764 186.038 50.7447 175.222 32.8716C156.714 2.28351 113.449 -7.43271 81.8416 6.36193C78.3563 7.92132 74.6307 10.2004 71.6262 13.1993C68.7419 16.0782 66.3382 19.7967 65.9777 24.3549C69.1024 22.1958 72.4675 20.3965 76.0729 18.957C76.2332 18.7171 76.4335 18.4772 76.6738 18.2373C78.8371 16.0781 81.8416 14.2788 84.726 12.9594ZM193.85 100.525C201.782 100.765 208.032 107.723 210.195 116.719C210.315 117.079 210.075 117.439 209.834 117.559C209.474 117.559 209.113 117.319 209.113 117.079C206.95 108.202 201.061 101.965 193.85 101.725C189.283 101.485 184.837 103.764 181.592 107.842C178.227 111.801 176.063 117.559 175.823 123.916C175.463 130.274 177.145 136.151 180.15 140.47C183.034 144.668 187.12 147.427 191.807 147.547C193.249 147.547 194.692 147.427 196.014 147.067C196.374 146.947 196.735 147.187 196.735 147.427C196.855 147.787 196.614 148.147 196.374 148.147C194.812 148.627 193.37 148.747 191.807 148.747C186.639 148.627 182.193 145.628 179.068 141.07C176.063 136.511 174.261 130.394 174.621 123.796C174.862 117.199 177.145 111.321 180.63 107.123C184.116 102.804 188.803 100.285 193.85 100.525ZM32.4472 124.276C32.4472 141.429 41.1003 155.824 52.878 160.142C52.3172 157.183 51.9566 154.184 51.7963 151.146C46.0276 144.428 42.4222 134.832 42.4222 124.276C42.4222 113.72 46.0277 104.244 51.6762 97.5265V88.8898C40.4994 93.688 32.4472 107.723 32.4472 124.276Z" fill="#C8E5FC"/>
<defs>
<linearGradient id="paint0_linear_357_15108" x1="196.174" y1="-77.2289" x2="196.174" y2="354.686" gradientUnits="userSpaceOnUse">
<stop stop-color="#EA501B"/>
<stop offset="0.075" stop-color="#EA501B" stop-opacity="0.91"/>
<stop offset="0.842" stop-color="#EA501B" stop-opacity="0"/>
</linearGradient>
</defs>
</svg>
